<svg width="197" height="208" viewBox="0 0 197 208" fill="none" xmlns="http://www.w3.org/2000/svg">
<path d="M192.241 72.8663C192.241 94.4965 188.045 132.509 179.517 148.752C166.615 173.327 110.076 208 86.4794 208C47.2868 208 0 148.995 0 94.6379C0 40.2812 73.1083 8 112.301 8C151.493 8 192.241 18.5095 192.241 72.8663Z" fill="#34A893"/>
<path d="M195.741 64.8663C195.741 75.6549 194.694 90.5411 192.583 104.756C190.468 118.988 187.296 132.479 183.075 140.52C179.889 146.586 173.987 153.314 166.521 160.005C159.063 166.689 150.072 173.311 140.743 179.168C131.414 185.026 121.756 190.114 112.967 193.736C104.164 197.363 96.2791 199.5 90.4794 199.5C71.1128 199.5 49.622 184.895 32.9375 163.396C16.2685 141.917 4.5 113.681 4.5 86.6379C4.5 59.705 22.6129 38.1787 45.7232 23.3561C68.83 8.53564 96.8128 0.5 116.301 0.5C135.871 0.5 155.739 3.12764 170.703 12.4734C185.623 21.7916 195.741 37.8355 195.741 64.8663Z" fill="#CBFCF4" stroke="#34A893"/>
</svg>
