<svg width="237" height="208" viewBox="0 0 237 208" fill="none" xmlns="http://www.w3.org/2000/svg">
<path d="M230.595 108C230.595 129.977 233.236 163.407 221.226 179.91C203.055 204.879 163.883 208 130.65 208C75.4519 208 0 125.775 0 70.5468C0 15.3183 75.4519 8 130.65 8C185.848 8 230.595 52.7715 230.595 108Z" fill="#34A893"/>
<path d="M236.095 100C236.095 103.221 236.151 106.68 236.21 110.291C236.352 119.036 236.509 128.671 235.915 137.976C235.075 151.132 232.737 163.488 226.822 171.616C217.834 183.966 203.63 190.945 187.469 194.832C171.31 198.719 153.257 199.5 136.65 199.5C122.969 199.5 107.991 194.402 93.1993 185.857C78.4127 177.313 63.8441 165.342 50.9903 151.642C25.2612 124.218 6.5 89.973 6.5 62.5468C6.5 48.8668 11.1673 38.1764 19.0163 29.8166C26.8764 21.445 37.9495 15.3877 50.7862 11.0363C76.4661 2.3312 109.058 0.5 136.65 0.5C191.571 0.5 236.095 45.0474 236.095 100Z" fill="#CBFCF4" stroke="#34A893"/>
</svg>
