<svg width="237" height="208" viewBox="0 0 237 208" fill="none" xmlns="http://www.w3.org/2000/svg">
<path d="M236.253 74.1227C236.253 104.929 230.261 159.069 218.085 182.202C199.662 217.204 159.949 206.439 126.257 206.439C70.2969 206.439 11 151.54 11 74.1225C11 -3.29469 58.1033 8.66652 114.064 8.66652C170.024 8.66652 236.253 -3.29456 236.253 74.1227Z" fill="#34A893"/>
<path d="M224.753 66.1227C224.753 81.4994 223.257 102.711 220.24 122.966C217.221 143.239 212.688 162.483 206.642 173.97C197.533 191.276 183.182 197.276 166.846 198.949C158.666 199.786 150 199.537 141.255 199.074C139.146 198.963 137.032 198.839 134.92 198.715C128.283 198.327 121.66 197.939 115.257 197.939C59.6054 197.939 0.5 143.297 0.5 66.1225C0.5 46.8108 3.43886 33.1362 8.6739 23.4728C13.8988 13.8281 21.4315 8.14099 30.7145 4.83407C40.0178 1.51989 51.0826 0.595404 63.3553 0.507215C69.4882 0.463145 75.9103 0.627701 82.5552 0.803595L83.1062 0.818188C89.5767 0.989613 96.2543 1.16652 103.064 1.16652C109.658 1.16652 116.394 1.00061 123.14 0.834451C123.558 0.824163 123.975 0.813875 124.393 0.803625C131.56 0.627755 138.73 0.463146 145.761 0.507238C159.827 0.595452 173.297 1.51953 185.007 4.84412C196.708 8.16629 206.625 13.878 213.625 23.5283C220.628 33.1827 224.753 46.8369 224.753 66.1227Z" fill="#CBFCF4" stroke="#34A893"/>
</svg>
