<svg width="174" height="200" viewBox="0 0 174 200" fill="none" xmlns="http://www.w3.org/2000/svg">
<path d="M173.217 103.587C173.217 125.773 168.902 164.762 160.133 181.422C146.866 206.628 118.267 198.876 94.0033 198.876C53.7031 198.876 11 159.34 11 103.587C11 47.8346 53.7031 0 94.0033 0C134.304 0 173.217 47.8347 173.217 103.587Z" fill="#34A893"/>
<path d="M161.717 103.587C161.717 114.654 160.641 129.923 158.469 144.503C156.295 159.101 153.033 172.94 148.691 181.189C142.16 193.597 131.876 197.902 120.141 199.104C114.262 199.706 108.03 199.526 101.733 199.194C100.216 199.114 98.6952 199.024 97.1744 198.935C92.3942 198.655 87.6186 198.376 83.0033 198.376C43.0116 198.376 0.5 159.097 0.5 103.587C0.5 75.8367 11.1289 50.051 26.7738 31.2058C42.4257 12.3519 63.0476 0.5 83.0033 0.5C102.953 0.5 122.624 12.3454 137.329 31.194C152.027 50.0354 161.717 75.8244 161.717 103.587Z" fill="#CBFCF4" stroke="#34A893"/>
</svg>
